<svg aria-hidden="true" style="position: absolute; width: 0; height: 0; overflow: hidden;" version="1.1" xmlns="http://www.w3.org/2000/svg" xmlns:xlink="http://www.w3.org/1999/xlink">
<defs>
<symbol id="icon-Instagram" viewBox="0 0 31 32">
<path d="M15.513 6.319c3.109 0 3.477 0.014 4.699 0.068 1.137 0.050 1.75 0.241 2.159 0.4 0.541 0.209 0.931 0.464 1.336 0.868 0.409 0.409 0.659 0.796 0.873 1.337 0.159 0.409 0.35 1.027 0.4 2.159 0.055 1.227 0.068 1.595 0.068 4.7s-0.014 3.477-0.068 4.7c-0.050 1.137-0.241 1.75-0.4 2.159-0.209 0.541-0.463 0.931-0.868 1.336-0.409 0.409-0.796 0.659-1.336 0.873-0.409 0.159-1.028 0.35-2.159 0.4-1.227 0.055-1.595 0.068-4.7 0.068s-3.477-0.014-4.7-0.068c-1.137-0.050-1.75-0.241-2.159-0.4-0.541-0.209-0.931-0.463-1.337-0.868-0.409-0.409-0.659-0.796-0.873-1.336-0.159-0.409-0.35-1.027-0.4-2.159-0.055-1.228-0.068-1.595-0.068-4.7s0.014-3.477 0.068-4.7c0.050-1.137 0.241-1.75 0.4-2.159 0.209-0.541 0.464-0.931 0.868-1.337 0.409-0.409 0.796-0.659 1.337-0.873 0.409-0.159 1.027-0.35 2.159-0.4 1.222-0.055 1.591-0.068 4.7-0.068h0.001zM15.513 4.224c-3.159 0-3.554 0.014-4.795 0.068-1.236 0.055-2.086 0.255-2.822 0.541-0.768 0.3-1.418 0.695-2.063 1.345-0.65 0.646-1.046 1.295-1.345 2.059-0.287 0.741-0.487 1.586-0.541 2.822-0.055 1.246-0.068 1.641-0.068 4.799s0.014 3.554 0.068 4.795c0.055 1.236 0.255 2.086 0.541 2.822 0.3 0.768 0.695 1.418 1.345 2.063 0.645 0.645 1.295 1.046 2.059 1.341 0.741 0.287 1.586 0.486 2.822 0.541 1.241 0.055 1.636 0.068 4.795 0.068s3.554-0.014 4.795-0.068c1.236-0.055 2.086-0.254 2.822-0.541 0.763-0.295 1.414-0.695 2.059-1.341s1.046-1.295 1.341-2.059c0.287-0.741 0.486-1.586 0.541-2.822 0.055-1.241 0.068-1.636 0.068-4.795s-0.014-3.554-0.068-4.795c-0.055-1.236-0.255-2.086-0.541-2.822-0.286-0.773-0.682-1.422-1.331-2.068-0.645-0.645-1.295-1.046-2.059-1.341-0.741-0.287-1.586-0.486-2.822-0.541-1.245-0.059-1.64-0.073-4.799-0.073l-0.001 0.001z"></path>
<path d="M15.513 9.883c-3.299 0-5.977 2.677-5.977 5.977s2.677 5.977 5.977 5.977c3.3 0 5.977-2.677 5.977-5.977s-2.677-5.977-5.977-5.977zM15.513 19.736c-2.141 0-3.877-1.736-3.877-3.877s1.736-3.877 3.877-3.877c2.141 0 3.877 1.736 3.877 3.877s-1.736 3.877-3.877 3.877z"></path>
<path d="M23.12 9.646c0 0.771-0.625 1.395-1.395 1.395s-1.395-0.625-1.395-1.395c0-0.771 0.625-1.395 1.395-1.395s1.395 0.625 1.395 1.395z"></path>
</symbol>
<symbol id="icon-LinkedIn" viewBox="0 0 31 32">
<path d="M24.97 4.223h-18.909c-1.2 0-2.182 0.982-2.182 2.182v18.909c0 1.2 0.982 2.182 2.182 2.182h18.909c1.2 0 2.182-0.982 2.182-2.182v-18.909c0-1.2-0.982-2.182-2.182-2.182zM12.606 23.133h-2.909v-10.182h2.909v10.182zM11.152 11.496c-0.804 0-1.455-0.65-1.455-1.455s0.65-1.455 1.455-1.455c0.804 0 1.455 0.65 1.455 1.455s-0.65 1.455-1.455 1.455zM22.788 23.133h-2.909v-5.818c0-0.804-0.65-1.455-1.455-1.455s-1.455 0.65-1.455 1.455v5.818h-2.909v-10.182h2.909v1.804c0.6-0.822 1.518-1.804 2.545-1.804 1.809 0 3.273 1.628 3.273 3.636v6.545z"></path>
</symbol>
<symbol id="icon-Youtube" viewBox="0 0 31 32">
<path d="M27.919 9.658c-0.147-0.546-0.435-1.045-0.835-1.445s-0.897-0.69-1.443-0.838c-2.025-0.556-10.125-0.565-10.125-0.565s-8.099-0.009-10.125 0.522c-0.546 0.155-1.042 0.448-1.442 0.851s-0.689 0.901-0.841 1.448c-0.534 2.025-0.539 6.224-0.539 6.224s-0.005 4.22 0.525 6.224c0.297 1.108 1.17 1.983 2.279 2.282 2.045 0.556 10.124 0.565 10.124 0.565s8.1 0.009 10.125-0.521c0.546-0.148 1.044-0.436 1.445-0.836s0.69-0.897 0.84-1.443c0.535-2.023 0.539-6.222 0.539-6.222s0.026-4.221-0.526-6.246zM12.925 19.745l0.007-7.758 6.732 3.885-6.739 3.872z"></path>
</symbol>
<symbol id="icon-menu" viewBox="0 0 32 32">
<path d="M5.333 8h21.333v2.667h-21.333v-2.667zM5.333 14.667h21.333v2.667h-21.333v-2.667zM5.333 21.333h21.333v2.667h-21.333v-2.667z"></path>
</symbol>
<symbol id="icon-x" viewBox="0 0 32 32">
<path d="M21.589 8.459l-5.657 5.656-5.656-5.656-1.885 1.885 5.656 5.656-5.656 5.656 1.885 1.885 5.656-5.656 5.657 5.656 1.885-1.885-5.656-5.656 5.656-5.656-1.885-1.885z"></path>
</symbol>
<symbol id="icon-Vector" viewBox="0 0 32 32">
<path d="M14.513 1.905c0.55-1.306 2.423-1.306 2.973 0l3.246 7.71c0.232 0.551 0.756 0.927 1.358 0.975l8.426 0.667c1.428 0.113 2.006 1.873 0.919 2.793l-6.419 5.432c-0.458 0.388-0.659 0.997-0.519 1.577l1.961 8.123c0.332 1.376-1.183 2.464-2.405 1.727l-7.213-4.353c-0.515-0.311-1.163-0.311-1.679 0l-7.214 4.353c-1.222 0.737-2.738-0.35-2.405-1.727l1.961-8.123c0.14-0.58-0.060-1.189-0.519-1.577l-6.42-5.432c-1.088-0.92-0.509-2.68 0.919-2.793l8.426-0.667c0.602-0.048 1.126-0.424 1.358-0.975l3.246-7.71z"></path>
</symbol>
<symbol id="feedback-star" viewBox="0 0 32 32">
<path d="M14.513 2.265c0.55-1.314 2.423-1.314 2.973 0l3.246 7.756c0.232 0.554 0.756 0.932 1.358 0.98l8.426 0.671c1.428 0.114 2.006 1.884 0.919 2.81l-6.419 5.464c-0.458 0.39-0.659 1.003-0.519 1.586l1.961 8.17c0.332 1.384-1.183 2.478-2.405 1.737l-7.213-4.378c-0.515-0.313-1.163-0.313-1.679 0l-7.214 4.378c-1.222 0.742-2.738-0.352-2.405-1.737l1.961-8.17c0.14-0.584-0.060-1.196-0.519-1.586l-6.42-5.464c-1.088-0.926-0.509-2.696 0.919-2.81l8.426-0.671c0.602-0.048 1.126-0.426 1.358-0.98l3.246-7.756z"></path>
</symbol>
</defs>
</svg>

